# xmcd CD database file
#
# Track frame offsets:
#	150
#	1628
#	30586
#	52740
#	79876
#	110193
#	140457
#	163218
#	191568
#	222350
#	247164
#	272376
#	304073
#
# Disc length: 4301 seconds
#
# Revision: 4
# Processed by: cddbd v1.5.2PL0 Copyright (c) Steve Scherf et al.
# Submitted via: CDex 1.77
#
DISCID=ae10cb0d
DTITLE=Dzem - Dzem w operze
DYEAR=1900
DGENRE=Blues
TTITLE0=Strojenie
TTITLE1=Dzikosc mego serca
TTITLE2=To tylko dwa piwa
TTITLE3=Mala aleja roz
TTITLE4=Miliony srebrnych lez
TTITLE5=Tylko ja i Ty
TTITLE6=Dzien w ktorym peklo niebo
TTITLE7=Sen o Victorii
TTITLE8=Wokol sami lunatycy
TTITLE9=Autsajder
TTITLE10=Naiwne pytania
TTITLE11=Wehikul czasu
TTITLE12=Zapal swieczke
EXTD=
EXTT0=
EXTT1=
EXTT2=
EXTT3=
EXTT4=
EXTT5=
EXTT6=
EXTT7=
EXTT8=
EXTT9=
EXTT10=
EXTT11=
EXTT12=
PLAYORDER=
